name C:\Users\u0101727\Documents\MyRepositories\paper-ad\predictivesimulations_2d/Results/PredSim_2D/IK_c10.mot
datacolumns 11
datarows 38
range 0.63319533 0.98816847
endheader
time	pelvis_tilt	pelvis_tx	pelvis_ty	hip_flexion_l	hip_flexion_r	knee_angle_l	knee_angle_r	ankle_angle_l	ankle_angle_r	lumbar_extension	
          0.63319533	        -14.99996342	          0.85497371	          0.89996814	         25.64519039	         11.32230333	        -10.65069649	        -40.88819217	          8.48992538	         -0.29705466	         10.23833924	
          0.64278920	        -15.01708364	          0.86694521	          0.90140684	         24.72606781	         12.59558334	        -10.40293595	        -41.78462795	          8.59332559	          0.67861146	         10.19991462	
          0.65238306	        -15.03173537	          0.87886081	          0.90260194	         23.79161397	         13.90128456	        -10.13023228	        -42.57311435	          8.73771585	          1.73422938	         10.15751278	
          0.66197693	        -15.04389868	          0.89072809	          0.90355670	         22.84630253	         15.23444053	         -9.84048060	        -43.24550676	          8.91723492	          2.85212920	         10.11144433	
          0.67157080	        -15.05369313	          0.90255434	          0.90428166	         21.89406797	         16.58910978	         -9.54077910	        -43.79428369	          9.12545691	          4.01449734	         10.06217829	
          0.68116467	        -15.06128433	          0.91434591	          0.90479364	         20.93902295	         17.95940383	         -9.23861621	        -44.21178507	          9.35472427	          5.20348087	         10.01015603	
          0.69075854	        -15.06681232	          0.92610835	          0.90511328	         19.98573722	         19.33983213	         -8.94184937	        -44.49021471	          9.59693004	          6.40126104	          9.95571926	
          0.70035241	        -15.07042203	          0.93784770	          0.90526187	         19.03899626	         20.72392954	         -8.65881890	        -44.62261029	          9.84408329	          7.59004548	          9.89924818	
          0.70994628	        -15.07232805	          0.94957102	          0.90525956	         18.10213196	         22.10474504	         -8.39532694	        -44.60334747	         10.08876913	          8.75215680	          9.84127037	
          0.71954014	        -15.07284406	          0.96128667	          0.90512439	         17.17599275	         23.47538854	         -8.15272326	        -44.42836605	         10.32428974	          9.87022153	          9.78252483	
          0.72913401	        -15.07225317	          0.97300350	          0.90487184	         16.26192243	         24.82797980	         -7.93369183	        -44.09571538	         10.54383079	         10.92750034	          9.72375362	
          0.73872788	        -15.07079772	          0.98472975	          0.90451504	         15.36207224	         26.15454980	         -7.74185780	        -43.60446243	         10.74125360	         11.90855392	          9.66557734	
          0.74832175	        -15.06871886	          0.99647450	          0.90406476	         14.47803652	         27.44630132	         -7.58027329	        -42.95760775	         10.91185851	         12.79999238	          9.60873258	
          0.75791562	        -15.06627069	          1.00824627	          0.90353020	         13.61076446	         28.69518540	         -7.45102935	        -42.15972196	         11.05262989	         13.59159189	          9.55391412	
          0.76750949	        -15.06371519	          1.02005167	          0.90291958	         12.76111461	         29.89504249	         -7.35518764	        -41.21515353	         11.16239472	         14.27728025	          9.50160774	
          0.77710336	        -15.06128904	          1.03189704	          0.90223956	         11.92979585	         31.04016853	         -7.29442008	        -40.13064288	         11.24183268	         14.85546797	          9.45225552	
          0.78669722	        -15.05921183	          1.04378673	          0.90149563	         11.11713310	         32.12762063	         -7.26964217	        -38.91169919	         11.29373380	         15.32899137	          9.40604589	
          0.79629109	        -15.05769732	          1.05572435	          0.90069174	         10.32301886	         33.15604140	         -7.28125650	        -37.56329951	         11.32255380	         15.70413832	          9.36304782	
          0.80588496	        -15.05696148	          1.06771323	          0.89982997	          9.54719539	         34.12485399	         -7.32926076	        -36.09083316	         11.33364014	         15.98928079	          9.32323585	
          0.81547883	        -15.05728808	          1.07975787	          0.89891057	          8.78906201	         35.03254597	         -7.41310386	        -34.50175699	         11.33229192	         16.19355998	          9.28668551	
          0.82507270	        -15.05907292	          1.09186473	          0.89793248	          8.04758016	         35.87559110	         -7.53172546	        -32.80366097	         11.32212200	         16.32608873	          9.25370809	
          0.83466657	        -15.06264218	          1.10404189	          0.89689457	          7.32238889	         36.64940159	         -7.68537742	        -31.00806049	         11.30397705	         16.39564182	          9.22468656	
          0.84426044	        -15.06807130	          1.11630126	          0.89579944	          6.61437646	         37.34727057	         -7.87768788	        -29.14127482	         11.27630705	         16.41035590	          9.20020726	
          0.85385431	        -15.07539523	          1.12866102	          0.89465940	          5.92556277	         37.95618329	         -8.11486460	        -27.23754598	         11.23313871	         16.37751029	          9.18157375	
          0.86344817	        -15.08464125	          1.14114261	          0.89349606	          5.25909636	         38.46032476	         -8.40401864	        -25.32905663	         11.16210105	         16.30349595	          9.17050669	
          0.87304204	        -15.09549150	          1.15376477	          0.89233195	          4.61938212	         38.85029773	         -8.75361445	        -23.44359750	         11.04690744	         16.19370498	          9.16818824	
          0.88263591	        -15.10714945	          1.16654205	          0.89118507	          4.01165489	         39.12604359	         -9.17345953	        -21.60306919	         10.87102886	         16.05226718	          9.17502146	
          0.89222978	        -15.11839999	          1.17948730	          0.89006973	          3.44120144	         39.29447739	         -9.67388427	        -19.82903376	         10.62020513	         15.88178687	          9.19093236	
          0.90182365	        -15.12801903	          1.19261438	          0.88899813	          2.91293222	         39.36280549	        -10.26461987	        -18.13621200	         10.28156825	         15.68345991	          9.21601120	
          0.91141752	        -15.13486170	          1.20593779	          0.88797946	          2.43127417	         39.33786644	        -10.95422147	        -16.53640796	          9.84293901	         15.45717805	          9.25049750	
          0.92101139	        -15.13767338	          1.21947170	          0.88701901	          2.00083405	         39.22727544	        -11.75167089	        -15.04670138	          9.29346436	         15.20165035	          9.29453055	
          0.93060525	        -15.13518981	          1.23323054	          0.88611784	          1.62712457	         39.03607415	        -12.66724617	        -13.68162690	          8.62216245	         14.91485157	          9.34840064	
          0.94019912	        -15.12600540	          1.24722790	          0.88527166	          1.31605113	         38.76901648	        -13.71187294	        -12.46098881	          7.81858809	         14.59390264	          9.41235944	
          0.94979299	        -15.10856281	          1.26147554	          0.88446931	          1.07329200	         38.43146974	        -14.89578952	        -11.41358653	          6.87521828	         14.23500764	          9.48655625	
          0.95938686	        -15.08142041	          1.27598452	          0.88369168	          0.90364766	         38.02378507	        -16.22829020	        -10.57032511	          5.79203520	         13.83380743	          9.57157911	
          0.96898073	        -15.04338260	          1.29076316	          0.88290727	          0.81003107	         37.53889939	        -17.72233592	         -9.96487384	          4.59137189	         13.38532847	          9.66848895	
          0.97857460	        -14.99428951	          1.30580522	          0.88207227	          0.79517010	         36.95880269	        -19.38389791	         -9.64538672	          3.28679624	         12.88477930	          9.77843078	
          0.98816847	        -14.93670199	          1.32109362	          0.88121001	          0.86630968	         36.21544783	        -21.20982526	         -9.73235282	          1.85819291	         12.33008318	          9.90538118	
